<svg xmlns="http://www.w3.org/2000/svg" width="57.406" height="50.344" viewBox="0 0 57.406 50.344">
  <defs>
    <style>
      .cls-1 {
        fill-rule: evenodd;
        fill: #ddd;
      }
    </style>
  </defs>
  <path id="ssdf" class="cls-1" d="M578.176,517.111H566.913q0.165-6.874,3.188-11.015t9.98-6.46l-4.555-9.607a33.534,33.534,0,0,0-12.257,7.288,24.319,24.319,0,0,0-6.584,10.477q-1.782,5.838-1.781,15.942v16.646h23.272V517.111Zm32.24,0H599.153q0.165-6.874,3.188-11.015t9.979-6.46l-4.554-9.607a34.054,34.054,0,0,0-12.216,7.288,24.2,24.2,0,0,0-6.625,10.435q-1.782,5.8-1.781,15.984v16.646h23.272V517.111Z" transform="translate(-554.906 -490.031)"/>
</svg>
