<svg xmlns="http://www.w3.org/2000/svg" width="45.094" height="75.281" viewBox="0 0 45.094 75.281">
  <defs>
    <style>
      .cls-1 {
        fill: #26212f;
        fill-rule: evenodd;
      }
    </style>
  </defs>
  <path id="ok" class="cls-1" d="M956.369,666.971c12.988-.177,23.835,12.325,18.486,25.981-2.684,6.853-8.154,10.983-16.626,12.118-12.832,1.718-23.816-12.979-19.05-25.531A19.047,19.047,0,0,1,951.8,667.7Zm0,9.693c-4.076,1.2-6.527,2.275-8,5.975-2.548,6.385,2.895,13.706,9.694,12.737C969.57,693.734,969.052,676.51,956.369,676.664Zm-17.528,28.18c3.074,0,4.625,2,6.65,3.156a26.134,26.134,0,0,0,9.356,2.706,23.338,23.338,0,0,0,14.6-3.1L973,705.3a4.765,4.765,0,0,1,5.749,1.522c2.069,3.082.1,5.746-2.029,7.327a28.7,28.7,0,0,1-10.765,5.072l-5.129.845,0.057,0.057,14.766,14.822a4.85,4.85,0,0,1-.282,5.129c-1.027,1.428-3.686,2.992-5.974,1.747-1.553-.845-2.776-2.607-4-3.832q-4.084-4.115-8.172-8.229l-0.169.057-11.892,11.835c-2.285,1.4-5.1-.075-6.2-1.578a4.841,4.841,0,0,1-.338-5.072l14.822-14.936-5.129-.845a26.917,26.917,0,0,1-11.835-5.805C932.872,710.228,934.639,706.135,938.841,704.844Z" transform="translate(-934.531 -666.969)"/>
</svg>
