<svg xmlns="http://www.w3.org/2000/svg" width="25" height="29.156" viewBox="0 0 25 29.156">
  <defs>
    <style>
      .cls-1 {
        fill-rule: evenodd;
      }
    </style>
  </defs>
  <path id="fsd" class="cls-1" d="M635.315,393.107A4.34,4.34,0,0,0,632.646,392H618.062a1.557,1.557,0,0,0-1.562,1.563V419.6a1.557,1.557,0,0,0,1.562,1.563h21.875A1.557,1.557,0,0,0,641.5,419.6v-18.75a4.34,4.34,0,0,0-1.107-2.669Zm-1.481,1.465,5.094,5.094a1.762,1.762,0,0,1,.358.667h-6.119v-6.119a1.762,1.762,0,0,1,.667.358h0Zm-15.251,24.511v-25h12.5v6.771a1.557,1.557,0,0,0,1.563,1.563h6.771v16.666H618.583Zm4.167-13.02a0.5,0.5,0,0,0,.521.52h11.458a0.5,0.5,0,0,0,.521-0.52v-1.042a0.5,0.5,0,0,0-.521-0.521H623.271a0.5,0.5,0,0,0-.521.521v1.042Zm0.521,2.6a0.5,0.5,0,0,0-.521.521v1.041a0.5,0.5,0,0,0,.521.521h11.458a0.5,0.5,0,0,0,.521-0.521v-1.041a0.5,0.5,0,0,0-.521-0.521H623.271Zm0,4.166a0.5,0.5,0,0,0-.521.521V414.4a0.5,0.5,0,0,0,.521.521h6.458a0.5,0.5,0,0,0,.521-0.521v-1.042a0.5,0.5,0,0,0-.521-0.521h-6.458Z" transform="translate(-616.5 -392)"/>
</svg>
