<svg xmlns="http://www.w3.org/2000/svg" width="25.78" height="25.781" viewBox="0 0 25.78 25.781">
  <defs>
    <style>
      .cls-1 {
        fill: #a059cf;
        fill-rule: evenodd;
      }
    </style>
  </defs>
  <path id="fa-search" class="cls-1" d="M1811.79,521.324a5.75,5.75,0,1,1,4.07-1.688A5.542,5.542,0,0,1,1811.79,521.324Zm16.09,6.6-5.9-5.9-2.74-1.331a8.792,8.792,0,0,0,1.59-5.121,8.958,8.958,0,0,0-.71-3.51,8.876,8.876,0,0,0-4.82-4.814,9.008,9.008,0,0,0-7.02,0,8.9,8.9,0,0,0-4.81,4.814,9.031,9.031,0,0,0,0,7.02,9.035,9.035,0,0,0,8.32,5.526,8.759,8.759,0,0,0,5.12-1.592l1.32,2.729,5.92,5.9a1.505,1.505,0,0,0,1.15.487c0.45,0,1.46.627,2.57-.487a2.422,2.422,0,0,0,.49-2.57,1.565,1.565,0,0,0-.48-1.155h0Z" transform="translate(-1802.75 -506.531)"/>
</svg>
