<svg xmlns="http://www.w3.org/2000/svg" width="291" height="246" viewBox="0 0 291 246">
  <defs>
    <style>
      .cls-1 {
        fill-rule: evenodd;
      }
    </style>
  </defs>
  <path id="tg" class="cls-1" d="M370,144c-5.89,4.35-13.694,4.957-21,8-11.488,4.785-23.707,8.884-36,14-46.794,19.473-96.164,37.562-143,57-18.286,7.589-36.54,13.6-54,21-7,2.969-15.388,2.656-18,10-1.659,2.453-.616,5.25,0,8,21.585,11.775,50.615,15.207,74,25,2.716,9.44,5.211,17.372,8,25,5.094,13.933,8.112,27.864,13,41,3.37,9.057,2.548,19.98,14,21,1.66,0.829,2.585.238,6,0,10.761-13.926,28.183-23.2,38-38h1v1c8.019,4.045,14.013,10.977,21,16,9.724,6.991,19.291,13.022,29,20,9.628,6.92,14.518,16.75,31,17,3.152-2.931,6.37-3.324,8-8,6.949-19.654,13.145-64.124,39-183,1.264-5.81,9.008-40.3,8-44a14.084,14.084,0,0,0-8-9C377.624,144.091,374.513,143.944,370,144ZM205,353c-2.076-.372-1.924-0.242-3-1-2.733-9.485-16.342-46.734-20-69,35.541-22.081,107-67,107-67s34.263-26.563,47-27a14.124,14.124,0,0,1,1,4c-7.685,6.9-23,21-23,21l-69,61s-34.295,24.775-35,35C207.6,313.857,205.1,345.922,205,353Z" transform="translate(-97.094 -144)"/>
</svg>
