<svg xmlns="http://www.w3.org/2000/svg" width="16.938" height="10.562" viewBox="0 0 16.938 10.562">
  <defs>
    <style>
      .cls-1 {
        fill: #535353;
        fill-rule: evenodd;
      }
    </style>
  </defs>
  <path id="eye" class="cls-1" d="M355,110.712A9.123,9.123,0,0,1,363.461,116a9.413,9.413,0,0,1-16.922,0A9.123,9.123,0,0,1,355,110.712Zm1.043,8.918a3.841,3.841,0,0,0-.036-7.27,6.21,6.21,0,0,1,5.4,3.64A6.708,6.708,0,0,1,356.043,119.63ZM351.374,116a3.648,3.648,0,0,0,2.583,3.63,6.708,6.708,0,0,1-5.369-3.63,6.21,6.21,0,0,1,5.4-3.64A3.648,3.648,0,0,0,351.374,116ZM355,114.024A1.981,1.981,0,1,1,353.156,116,1.868,1.868,0,0,1,355,114.024Z" transform="translate(-346.531 -110.719)"/>
</svg>
