<svg xmlns="http://www.w3.org/2000/svg" width="303.125" height="174.281" viewBox="0 0 303.125 174.281">
  <defs>
    <style>
      .cls-1 {
        fill-rule: evenodd;
      }
    </style>
  </defs>
  <path id="vk" class="cls-1" d="M214,170c-3.2,2.772-10.435,5.856-8,11,5.012,4.089,11.54,2.025,14,9,2.892,3.255,2,10.871,2,17,0,16.276.619,32.855-4,44a18.324,18.324,0,0,1-6,1,270.056,270.056,0,0,1-30-40l-13-30c-1.792-2.612-5.716-3.817-8-6H106a30.978,30.978,0,0,1-3,5c4.291,21.317,19.7,44.389,30,61,25.641,41.37,43.054,79.47,95,95,12.936,3.868,34.137,5.432,49,2,1.462-2.521,4.085-4.929,5-8,3.613-12.132-.481-28.863,14-30,4.626,4.555,11.076,7.8,15,13,7.544,10,16.432,22.373,29,27,12.982,4.78,47.832,2.716,61,0,1.556-2.389,2.923-2.924,4-6,4.548-7.566-6.08-16.761-9-21-8.918-12.946-38.936-35.043-40-50,10.538-13.261,18.26-28.167,28-42,8.558-12.155,20.479-20.612,21-41-12.59-8.037-52.742-7.407-70-3a358.113,358.113,0,0,1-31,57c-4.718,7.032-7.753,16.546-19,17-11.178-18.323-.355-54.746-5-77C265.006,167.6,236.432,169.941,214,170Z" transform="translate(-103 -169.594)"/>
</svg>
