<svg xmlns="http://www.w3.org/2000/svg" width="276.562" height="194.875" viewBox="0 0 276.562 194.875">
  <defs>
    <style>
      .cls-1 {
        fill-rule: evenodd;
      }
    </style>
  </defs>
  <path id="yout" class="cls-1" d="M173,160c-4.333,2.73-11.151,1.957-16,4a65.924,65.924,0,0,0-36,38c-4.688,13.009-3,32.17-3,49,0,20.1-2.271,44.175,3,60,15.946,47.875,62.272,43,125,43,55.343,0,112.422,7.9,136-25,10.266-14.323,12-32.884,12-58,0-45.406,2.347-78.5-24-98-19.255-14.253-42.353-13-76-13H173Zm52,59c14.675-.289,38.671,16.08,50,22,5.559,2.905,14.263,7.128,17,9,4.033,2.76,4.245,10.09,0,12-2.524,1.136-32.707,15.4-50,23-6.117,2.687-12.253,5.877-20,5s-3.462-64.515-2-67S223.618,220.485,225,219Z" transform="translate(-117.5 -159.969)"/>
</svg>
