<svg xmlns="http://www.w3.org/2000/svg" width="300" height="240.938" viewBox="0 0 300 240.938">
  <defs>
    <style>
      .cls-1 {
        fill-rule: evenodd;
      }
    </style>
  </defs>
  <path id="tw" class="cls-1" d="M246,222c-33.551-.438-65.78-21.813-86-37-8.085-6.072-21.373-28.651-31-30-2.913,5.641-7.07,11.5-9,18-7.657,25.767,6.85,44.445,15,60h-2a32.164,32.164,0,0,0-14-6c-1.833,3.426-2.115,8.028-2,14l6,20c5.317,11.648,16.536,22.355,28,28v1h-5c-1.828-1.274-5.257-1.706-8-2a16.935,16.935,0,0,0-2,6c3.037,3.887,3.347,9.726,6,14,3.816,6.147,11.225,14.719,17,19,4.474,3.316,21.773,8.5,24,12h-2c-8.922,8.874-26.821,12.791-41,16-10.3,2.332-23.853-.788-33,1-1.113,2.476-1.688,3.233-2,7a212.609,212.609,0,0,0,55,25c21.784,6.414,57.821,5.6,79,0,59.757-15.8,98.522-47.649,121-100,5.592-13.024,9.478-27.535,13-42q1-13,2-26c4.588-10.246,27.2-19.819,30-34-0.8-1.021-.355-0.274-1-2h-5c-3.871,3.5-12.771,5.244-19,6v-1h1c2.821-4,22.679-23.636,13-29-6.561-.719-23.443,10.711-39,11-12.256-16.23-46.007-25.442-70-15C261.345,166.3,245.763,187.345,246,222Z" transform="translate(-105 -151.562)"/>
</svg>
