<svg xmlns="http://www.w3.org/2000/svg" width="44.624" height="44.625" viewBox="0 0 44.624 44.625">
  <defs>
    <style>
      .cls-1 {
        fill: #26212f;
        fill-rule: evenodd;
      }
    </style>
  </defs>
  <path id="inst" class="cls-1" d="M505.709,564.034c11.732-.037,21.774-1.464,26.181,6.217,1.927,3.358,1.812,8.726,1.813,14.028,0,10.926.68,19.441-7.03,22.839-3.179,1.4-7.749,1.406-12.372,1.406l-8.592-.031-3.687-.094a20.709,20.709,0,0,1-5.779-1.281c-7.856-3.457-7.03-12.352-7.03-23.463,0-5.112-.041-10.171,1.812-13.4,1.884-3.286,4.849-5.2,9.31-5.936Zm2.093,4-4.717.094c-4.265.527-6.709,0.92-8.467,3.937-1.6,2.75-1.375,7.516-1.375,11.841,0,5.9-.767,13.632,1.75,17.152,3.212,4.493,12.2,3.436,19.808,3.436,3.7,0,7.664.076,10.247-1.062,5.872-2.585,4.624-11.9,4.624-20.214,0-4.126.15-8.536-1.374-11.153a7.43,7.43,0,0,0-3.437-3.031C521.225,567.476,512.944,568.026,507.8,568.033Zm15.309,3.687a2.692,2.692,0,1,1,.313,5.374c-2.535.263-3.615-3.261-1.906-4.687A4.056,4.056,0,0,1,523.111,571.72Zm-12.184,3.124c8.05-.108,14.577,7.6,11.091,15.871-1.7,4.028-4.928,6.32-10.029,7a9.353,9.353,0,0,1-4-.563c-5.17-1.63-9.962-7.85-7.249-14.9a11.339,11.339,0,0,1,7.124-6.842C508.8,575.1,509.856,575.156,510.927,574.844Zm0.187,3.843-1.937.344a7.422,7.422,0,0,0-4.686,4.5c-1.945,5.051,2.4,10.7,7.654,9.966C521.351,592.218,520.923,578.606,511.114,578.687Z" transform="translate(-489.188 -563.906)"/>
</svg>
