<svg xmlns="http://www.w3.org/2000/svg" xmlns:xlink="http://www.w3.org/1999/xlink"><symbol id="icon-tgm" viewBox="0 0 291 246"><path d="M272.906 0c-5.89 4.35-13.694 4.957-21 8-11.488 4.785-23.707 8.884-36 14-46.794 19.473-96.164 37.562-143 57-18.286 7.589-36.54 13.6-54 21-7 2.969-15.388 2.656-18 10-1.659 2.453-.616 5.25 0 8 21.585 11.775 50.615 15.207 74 25 2.716 9.44 5.211 17.372 8 25 5.094 13.933 8.112 27.864 13 41 3.37 9.057 2.548 19.98 14 21 1.66.829 2.585.238 6 0 10.761-13.926 28.183-23.2 38-38h1v1c8.019 4.045 14.013 10.977 21 16 9.724 6.991 19.291 13.022 29 20 9.628 6.92 14.518 16.75 31 17 3.152-2.931 6.37-3.324 8-8 6.949-19.654 13.145-64.124 39-183 1.264-5.81 9.008-40.3 8-44a14.084 14.084 0 00-8-9c-2.376-1.909-5.487-2.056-10-2zm-165 209c-2.076-.372-1.924-.242-3-1-2.733-9.485-16.342-46.734-20-69 35.541-22.081 107-67 107-67s34.263-26.563 47-27a14.124 14.124 0 011 4c-7.685 6.9-23 21-23 21l-69 61s-34.295 24.775-35 35c-2.4 3.857-4.9 35.922-5 43z" fill-rule="evenodd"/></symbol><symbol id="icon-toggle" viewBox="0 0 48 33"><path d="M3.5 0h41a3.5 3.5 0 010 7h-41a3.5 3.5 0 010-7zm0 13h41a3.5 3.5 0 010 7h-41a3.5 3.5 0 010-7zm0 13h41a3.5 3.5 0 010 7h-41a3.5 3.5 0 010-7z" fill-rule="evenodd"/></symbol><symbol id="icon-tw" viewBox="0 0 300 240.938"><path d="M141 70.438c-33.551-.438-65.78-21.813-86-37-8.085-6.072-21.373-28.651-31-30-2.913 5.641-7.07 11.5-9 18-7.657 25.767 6.85 44.445 15 60h-2a32.164 32.164 0 00-14-6c-1.833 3.426-2.115 8.028-2 14l6 20c5.317 11.648 16.536 22.355 28 28v1h-5c-1.828-1.274-5.257-1.706-8-2a16.935 16.935 0 00-2 6c3.037 3.887 3.347 9.726 6 14 3.816 6.147 11.225 14.719 17 19 4.474 3.316 21.773 8.5 24 12h-2c-8.922 8.874-26.821 12.791-41 16-10.3 2.332-23.853-.788-33 1-1.113 2.476-1.688 3.233-2 7a212.609 212.609 0 0055 25c21.784 6.414 57.821 5.6 79 0 59.757-15.8 98.522-47.649 121-100 5.592-13.024 9.478-27.535 13-42l2-26c4.588-10.246 27.2-19.819 30-34-.8-1.021-.355-.274-1-2h-5c-3.871 3.5-12.771 5.244-19 6v-1h1c2.821-4 22.679-23.636 13-29-6.561-.719-23.443 10.711-39 11-12.256-16.23-46.007-25.442-70-15-23.655 10.3-39.237 31.345-39 66z" fill-rule="evenodd"/></symbol><symbol id="icon-vk" viewBox="0 0 303.125 174.281"><path d="M111 .406c-3.2 2.772-10.435 5.856-8 11 5.012 4.089 11.54 2.025 14 9 2.892 3.255 2 10.871 2 17 0 16.276.619 32.855-4 44a18.324 18.324 0 01-6 1 270.056 270.056 0 01-30-40l-13-30c-1.792-2.612-5.716-3.817-8-6H3a30.978 30.978 0 01-3 5c4.291 21.317 19.7 44.389 30 61 25.641 41.37 43.054 79.47 95 95 12.936 3.868 34.137 5.432 49 2 1.462-2.521 4.085-4.929 5-8 3.613-12.132-.481-28.863 14-30 4.626 4.555 11.076 7.8 15 13 7.544 10 16.432 22.373 29 27 12.982 4.78 47.832 2.716 61 0 1.556-2.389 2.923-2.924 4-6 4.548-7.566-6.08-16.761-9-21-8.918-12.946-38.936-35.043-40-50 10.538-13.261 18.26-28.167 28-42 8.558-12.155 20.479-20.612 21-41-12.59-8.037-52.742-7.407-70-3a358.113 358.113 0 01-31 57c-4.718 7.032-7.753 16.546-19 17-11.178-18.323-.355-54.746-5-77-14.994-7.4-43.568-5.059-66-5z" fill-rule="evenodd"/></symbol><symbol id="icon-yout" viewBox="0 0 276.562 194.875"><path d="M55.5.031c-4.333 2.73-11.151 1.957-16 4a65.924 65.924 0 00-36 38c-4.688 13.009-3 32.17-3 49 0 20.1-2.271 44.175 3 60 15.946 47.875 62.272 43 125 43 55.343 0 112.422 7.9 136-25 10.266-14.323 12-32.884 12-58 0-45.406 2.347-78.5-24-98-19.255-14.253-42.353-13-76-13h-121zm52 59c14.675-.289 38.671 16.08 50 22 5.559 2.905 14.263 7.128 17 9 4.033 2.76 4.245 10.09 0 12-2.524 1.136-32.707 15.4-50 23-6.117 2.687-12.253 5.877-20 5s-3.462-64.515-2-67 3.618-2.515 5-4z" fill-rule="evenodd"/></symbol><symbol id="icon-zoom" viewBox="0 0 25.78 25.781"><path d="M9.04 14.793a5.75 5.75 0 114.07-1.688 5.542 5.542 0 01-4.07 1.688zm16.09 6.6l-5.9-5.9-2.74-1.331a8.792 8.792 0 001.59-5.121 8.958 8.958 0 00-.71-3.51A8.876 8.876 0 0012.55.717a9.008 9.008 0 00-7.02 0A8.9 8.9 0 00.72 5.531a9.031 9.031 0 000 7.02 9.035 9.035 0 008.32 5.526 8.759 8.759 0 005.12-1.592l1.32 2.729 5.92 5.9a1.505 1.505 0 001.15.487c.45 0 1.46.627 2.57-.487a2.422 2.422 0 00.49-2.57 1.565 1.565 0 00-.48-1.155z" fill-rule="evenodd"/></symbol> <view id="icon-tgm-view-blue" viewBox="0 0 291 246"/><view id="icon-tgm-view-dark" viewBox="0 256 291 246"/><view id="icon-tgm-view-white" viewBox="0 512 291 246"/><view id="icon-toggle-view-blue" viewBox="0 768 48 33"/><view id="icon-toggle-view-dark" viewBox="0 811 48 33"/><view id="icon-toggle-view-white" viewBox="0 854 48 33"/><view id="icon-tw-view-blue" viewBox="0 897 300 240.938"/><view id="icon-tw-view-dark" viewBox="0 1147.938 300 240.938"/><view id="icon-tw-view-white" viewBox="0 1398.876 300 240.938"/><view id="icon-vk-view-blue" viewBox="0 1649.8139999999999 303.125 174.281"/><view id="icon-vk-view-dark" viewBox="0 1834.0949999999998 303.125 174.281"/><view id="icon-vk-view-white" viewBox="0 2018.3759999999997 303.125 174.281"/><view id="icon-yout-view-blue" viewBox="0 2202.657 276.562 194.875"/><view id="icon-yout-view-dark" viewBox="0 2407.532 276.562 194.875"/><view id="icon-yout-view-white" viewBox="0 2612.407 276.562 194.875"/><view id="icon-zoom-view-blue" viewBox="0 2817.282 25.78 25.781"/><view id="icon-zoom-view-dark" viewBox="0 2853.063 25.78 25.781"/><view id="icon-zoom-view-white" viewBox="0 2888.844 25.78 25.781"/> <use xlink:href="#icon-tgm" x="0" y="0" width="291" height="246" style="fill:#638bf5"/><use xlink:href="#icon-tgm" x="0" y="256" width="291" height="246" style="fill:#46557b"/><use xlink:href="#icon-tgm" x="0" y="512" width="291" height="246" style="fill:#ffffff"/><use xlink:href="#icon-toggle" x="0" y="768" width="48" height="33" style="fill:#638bf5"/><use xlink:href="#icon-toggle" x="0" y="811" width="48" height="33" style="fill:#46557b"/><use xlink:href="#icon-toggle" x="0" y="854" width="48" height="33" style="fill:#ffffff"/><use xlink:href="#icon-tw" x="0" y="897" width="300" height="240.938" style="fill:#638bf5"/><use xlink:href="#icon-tw" x="0" y="1147.938" width="300" height="240.938" style="fill:#46557b"/><use xlink:href="#icon-tw" x="0" y="1398.876" width="300" height="240.938" style="fill:#ffffff"/><use xlink:href="#icon-vk" x="0" y="1649.8139999999999" width="303.125" height="174.281" style="fill:#638bf5"/><use xlink:href="#icon-vk" x="0" y="1834.0949999999998" width="303.125" height="174.281" style="fill:#46557b"/><use xlink:href="#icon-vk" x="0" y="2018.3759999999997" width="303.125" height="174.281" style="fill:#ffffff"/><use xlink:href="#icon-yout" x="0" y="2202.657" width="276.562" height="194.875" style="fill:#638bf5"/><use xlink:href="#icon-yout" x="0" y="2407.532" width="276.562" height="194.875" style="fill:#46557b"/><use xlink:href="#icon-yout" x="0" y="2612.407" width="276.562" height="194.875" style="fill:#ffffff"/><use xlink:href="#icon-zoom" x="0" y="2817.282" width="25.78" height="25.781" style="fill:#638bf5"/><use xlink:href="#icon-zoom" x="0" y="2853.063" width="25.78" height="25.781" style="fill:#46557b"/><use xlink:href="#icon-zoom" x="0" y="2888.844" width="25.78" height="25.781" style="fill:#ffffff"/></svg>