<svg xmlns="http://www.w3.org/2000/svg" xmlns:xlink="http://www.w3.org/1999/xlink"><symbol id="icon-arr_down" viewBox="0 0 10 5"><path fill-rule="evenodd" clip-rule="evenodd" d="M5 3.847L8.689.14a.473.473 0 01.672 0 .48.48 0 010 .675L5.336 4.86a.473.473 0 01-.672 0L.639.815a.48.48 0 010-.675.473.473 0 01.672 0L5 3.847z"/></symbol><symbol id="icon-arr_left" viewBox="0 0 21.031 36"><path d="M.007 17.99a4.143 4.143 0 001.232 2.25l14.668 14.85a2.963 2.963 0 004.224 0 3.056 3.056 0 000-4.28L7.459 17.99 20.131 5.16a3.056 3.056 0 000-4.28 2.963 2.963 0 00-4.224 0L1.276 15.69a4.287 4.287 0 00-1.269 2.3z" fill-rule="evenodd"/></symbol><symbol id="icon-arr_right" viewBox="0 0 21.094 35.72"><path d="M21.087 17.84a4.1 4.1 0 00-1.237-2.24L5.116.87A3 3 0 00.873 5.11l12.728 12.73L.873 30.57a3 3 0 004.243 4.24l14.7-14.7a4.2 4.2 0 001.271-2.27z" fill-rule="evenodd"/></symbol><symbol id="icon-close" viewBox="0 0 30 30"><path fill-rule="evenodd" stroke-width="3" d="M27.228 3.186L15.914 14.5l11.314 11.314-1.414 1.414L14.5 15.914 3.186 27.228l-1.414-1.414L13.086 14.5 1.772 3.186l1.414-1.414L14.5 13.086 25.814 1.772l1.414 1.414z"/></symbol><symbol id="icon-fb" viewBox="0 0 868 1608.402"><path d="M868 268.062c-54.88-.413-121.36-7-171 3-147.8 29.781-122.86 167.3-122 339h282c-.33.67-.67 1.33-1 2q-22.005 142.98-44 286H575v696l-130 12c-65.92 8.16-130.32-7.2-187-12v-696H0v-288h258c-.66-108.96-11.02-240.03 11-332 43.49-181.631 195.09-305 442-273l157 18v245z" fill-rule="evenodd"/></symbol><symbol id="icon-inst" viewBox="0 0 44.624 44.625"><path d="M16.521.128C28.253.091 38.295-1.336 42.702 6.345c1.927 3.358 1.812 8.726 1.813 14.028 0 10.926.68 19.441-7.03 22.839-3.179 1.4-7.749 1.406-12.372 1.406l-8.592-.031-3.687-.094a20.709 20.709 0 01-5.779-1.281C-.801 39.755.025 30.86.025 19.749c0-5.112-.041-10.171 1.812-13.4 1.884-3.286 4.849-5.2 9.31-5.936zm2.093 4l-4.717.094c-4.265.527-6.709.92-8.467 3.937-1.6 2.75-1.375 7.516-1.375 11.841 0 5.9-.767 13.632 1.75 17.152 3.212 4.493 12.2 3.436 19.808 3.436 3.7 0 7.664.076 10.247-1.062 5.872-2.585 4.624-11.9 4.624-20.214 0-4.126.15-8.536-1.374-11.153a7.43 7.43 0 00-3.437-3.031C32.037 3.57 23.756 4.12 18.612 4.127zm15.309 3.687a2.692 2.692 0 11.313 5.374c-2.535.263-3.615-3.261-1.906-4.687a4.056 4.056 0 011.593-.688zm-12.184 3.124c8.05-.108 14.577 7.6 11.091 15.871-1.7 4.028-4.928 6.32-10.029 7a9.353 9.353 0 01-4-.563c-5.17-1.63-9.962-7.85-7.249-14.9a11.339 11.339 0 017.124-6.842c.936-.311 1.992-.255 3.063-.567zm.187 3.843l-1.937.344a7.422 7.422 0 00-4.686 4.5c-1.945 5.051 2.4 10.7 7.654 9.966 9.206-1.28 8.778-14.892-1.031-14.811z" fill-rule="evenodd"/></symbol><symbol id="icon-ok" viewBox="0 0 45.094 75.281"><path d="M21.838.002c12.988-.177 23.835 12.325 18.486 25.981-2.684 6.853-8.154 10.983-16.626 12.118C10.866 39.819-.118 25.122 4.648 12.57A19.047 19.047 0 0117.269.731zm0 9.693c-4.076 1.2-6.527 2.275-8 5.975-2.548 6.385 2.895 13.706 9.694 12.737 11.507-1.642 10.989-18.866-1.694-18.712zM4.31 37.875c3.074 0 4.625 2 6.65 3.156a26.134 26.134 0 009.356 2.706 23.338 23.338 0 0014.6-3.1l3.553-2.306a4.765 4.765 0 015.749 1.522c2.069 3.082.1 5.746-2.029 7.327a28.7 28.7 0 01-10.765 5.072l-5.129.845.057.057 14.766 14.822a4.85 4.85 0 01-.282 5.129c-1.027 1.428-3.686 2.992-5.974 1.747-1.553-.845-2.776-2.607-4-3.832q-4.084-4.115-8.172-8.229l-.169.057-11.892 11.835c-2.285 1.4-5.1-.075-6.2-1.578a4.841 4.841 0 01-.338-5.072l14.822-14.936-5.129-.845a26.917 26.917 0 01-11.835-5.805c-3.608-3.188-1.841-7.281 2.361-8.572z" fill-rule="evenodd"/></symbol><symbol id="icon-tgm" viewBox="0 0 291 246"><path d="M272.906 0c-5.89 4.35-13.694 4.957-21 8-11.488 4.785-23.707 8.884-36 14-46.794 19.473-96.164 37.562-143 57-18.286 7.589-36.54 13.6-54 21-7 2.969-15.388 2.656-18 10-1.659 2.453-.616 5.25 0 8 21.585 11.775 50.615 15.207 74 25 2.716 9.44 5.211 17.372 8 25 5.094 13.933 8.112 27.864 13 41 3.37 9.057 2.548 19.98 14 21 1.66.829 2.585.238 6 0 10.761-13.926 28.183-23.2 38-38h1v1c8.019 4.045 14.013 10.977 21 16 9.724 6.991 19.291 13.022 29 20 9.628 6.92 14.518 16.75 31 17 3.152-2.931 6.37-3.324 8-8 6.949-19.654 13.145-64.124 39-183 1.264-5.81 9.008-40.3 8-44a14.084 14.084 0 00-8-9c-2.376-1.909-5.487-2.056-10-2zm-165 209c-2.076-.372-1.924-.242-3-1-2.733-9.485-16.342-46.734-20-69 35.541-22.081 107-67 107-67s34.263-26.563 47-27a14.124 14.124 0 011 4c-7.685 6.9-23 21-23 21l-69 61s-34.295 24.775-35 35c-2.4 3.857-4.9 35.922-5 43z" fill-rule="evenodd"/></symbol><symbol id="icon-toggle" viewBox="0 0 48 33"><path d="M3.5 0h41a3.5 3.5 0 010 7h-41a3.5 3.5 0 010-7zm0 13h41a3.5 3.5 0 010 7h-41a3.5 3.5 0 010-7zm0 13h41a3.5 3.5 0 010 7h-41a3.5 3.5 0 010-7z" fill-rule="evenodd"/></symbol><symbol id="icon-tw" viewBox="0 0 300 240.938"><path d="M141 70.438c-33.551-.438-65.78-21.813-86-37-8.085-6.072-21.373-28.651-31-30-2.913 5.641-7.07 11.5-9 18-7.657 25.767 6.85 44.445 15 60h-2a32.164 32.164 0 00-14-6c-1.833 3.426-2.115 8.028-2 14l6 20c5.317 11.648 16.536 22.355 28 28v1h-5c-1.828-1.274-5.257-1.706-8-2a16.935 16.935 0 00-2 6c3.037 3.887 3.347 9.726 6 14 3.816 6.147 11.225 14.719 17 19 4.474 3.316 21.773 8.5 24 12h-2c-8.922 8.874-26.821 12.791-41 16-10.3 2.332-23.853-.788-33 1-1.113 2.476-1.688 3.233-2 7a212.609 212.609 0 0055 25c21.784 6.414 57.821 5.6 79 0 59.757-15.8 98.522-47.649 121-100 5.592-13.024 9.478-27.535 13-42l2-26c4.588-10.246 27.2-19.819 30-34-.8-1.021-.355-.274-1-2h-5c-3.871 3.5-12.771 5.244-19 6v-1h1c2.821-4 22.679-23.636 13-29-6.561-.719-23.443 10.711-39 11-12.256-16.23-46.007-25.442-70-15-23.655 10.3-39.237 31.345-39 66z" fill-rule="evenodd"/></symbol><symbol id="icon-vk" viewBox="0 0 303.125 174.281"><path d="M111 .406c-3.2 2.772-10.435 5.856-8 11 5.012 4.089 11.54 2.025 14 9 2.892 3.255 2 10.871 2 17 0 16.276.619 32.855-4 44a18.324 18.324 0 01-6 1 270.056 270.056 0 01-30-40l-13-30c-1.792-2.612-5.716-3.817-8-6H3a30.978 30.978 0 01-3 5c4.291 21.317 19.7 44.389 30 61 25.641 41.37 43.054 79.47 95 95 12.936 3.868 34.137 5.432 49 2 1.462-2.521 4.085-4.929 5-8 3.613-12.132-.481-28.863 14-30 4.626 4.555 11.076 7.8 15 13 7.544 10 16.432 22.373 29 27 12.982 4.78 47.832 2.716 61 0 1.556-2.389 2.923-2.924 4-6 4.548-7.566-6.08-16.761-9-21-8.918-12.946-38.936-35.043-40-50 10.538-13.261 18.26-28.167 28-42 8.558-12.155 20.479-20.612 21-41-12.59-8.037-52.742-7.407-70-3a358.113 358.113 0 01-31 57c-4.718 7.032-7.753 16.546-19 17-11.178-18.323-.355-54.746-5-77-14.994-7.4-43.568-5.059-66-5z" fill-rule="evenodd"/></symbol><symbol id="icon-yout" viewBox="0 0 276.562 194.875"><path d="M55.5.031c-4.333 2.73-11.151 1.957-16 4a65.924 65.924 0 00-36 38c-4.688 13.009-3 32.17-3 49 0 20.1-2.271 44.175 3 60 15.946 47.875 62.272 43 125 43 55.343 0 112.422 7.9 136-25 10.266-14.323 12-32.884 12-58 0-45.406 2.347-78.5-24-98-19.255-14.253-42.353-13-76-13h-121zm52 59c14.675-.289 38.671 16.08 50 22 5.559 2.905 14.263 7.128 17 9 4.033 2.76 4.245 10.09 0 12-2.524 1.136-32.707 15.4-50 23-6.117 2.687-12.253 5.877-20 5s-3.462-64.515-2-67 3.618-2.515 5-4z" fill-rule="evenodd"/></symbol><symbol id="icon-zoom" viewBox="0 0 25.78 25.781"><path d="M9.04 14.793a5.75 5.75 0 114.07-1.688 5.542 5.542 0 01-4.07 1.688zm16.09 6.6l-5.9-5.9-2.74-1.331a8.792 8.792 0 001.59-5.121 8.958 8.958 0 00-.71-3.51A8.876 8.876 0 0012.55.717a9.008 9.008 0 00-7.02 0A8.9 8.9 0 00.72 5.531a9.031 9.031 0 000 7.02 9.035 9.035 0 008.32 5.526 8.759 8.759 0 005.12-1.592l1.32 2.729 5.92 5.9a1.505 1.505 0 001.15.487c.45 0 1.46.627 2.57-.487a2.422 2.422 0 00.49-2.57 1.565 1.565 0 00-.48-1.155z" fill-rule="evenodd"/></symbol> <view id="icon-arr_down-view-lilack" viewBox="0 0 10 5"/><view id="icon-arr_down-view-dark" viewBox="0 15 10 5"/><view id="icon-arr_down-view-white" viewBox="0 30 10 5"/><view id="icon-arr_left-view-lilack" viewBox="0 45 21.031 36"/><view id="icon-arr_left-view-dark" viewBox="0 91 21.031 36"/><view id="icon-arr_left-view-white" viewBox="0 137 21.031 36"/><view id="icon-arr_right-view-lilack" viewBox="0 183 21.094 35.72"/><view id="icon-arr_right-view-dark" viewBox="0 228.72 21.094 35.72"/><view id="icon-arr_right-view-white" viewBox="0 274.44 21.094 35.72"/><view id="icon-close-view-lilack" viewBox="0 320.15999999999997 30 30"/><view id="icon-close-view-dark" viewBox="0 360.15999999999997 30 30"/><view id="icon-close-view-white" viewBox="0 400.15999999999997 30 30"/><view id="icon-fb-view-lilack" viewBox="0 440.15999999999997 868 1608.402"/><view id="icon-fb-view-dark" viewBox="0 2058.562 868 1608.402"/><view id="icon-fb-view-white" viewBox="0 3676.964 868 1608.402"/><view id="icon-inst-view-lilack" viewBox="0 5295.366 44.624 44.625"/><view id="icon-inst-view-dark" viewBox="0 5349.991 44.624 44.625"/><view id="icon-inst-view-white" viewBox="0 5404.616 44.624 44.625"/><view id="icon-ok-view-lilack" viewBox="0 5459.241 45.094 75.281"/><view id="icon-ok-view-dark" viewBox="0 5544.522 45.094 75.281"/><view id="icon-ok-view-white" viewBox="0 5629.803 45.094 75.281"/><view id="icon-tgm-view-lilack" viewBox="0 5715.084 291 246"/><view id="icon-tgm-view-dark" viewBox="0 5971.084 291 246"/><view id="icon-tgm-view-white" viewBox="0 6227.084 291 246"/><view id="icon-toggle-view-lilack" viewBox="0 6483.084 48 33"/><view id="icon-toggle-view-dark" viewBox="0 6526.084 48 33"/><view id="icon-toggle-view-white" viewBox="0 6569.084 48 33"/><view id="icon-tw-view-lilack" viewBox="0 6612.084 300 240.938"/><view id="icon-tw-view-dark" viewBox="0 6863.022 300 240.938"/><view id="icon-tw-view-white" viewBox="0 7113.96 300 240.938"/><view id="icon-vk-view-lilack" viewBox="0 7364.898 303.125 174.281"/><view id="icon-vk-view-dark" viewBox="0 7549.179 303.125 174.281"/><view id="icon-vk-view-white" viewBox="0 7733.46 303.125 174.281"/><view id="icon-yout-view-lilack" viewBox="0 7917.741 276.562 194.875"/><view id="icon-yout-view-dark" viewBox="0 8122.616 276.562 194.875"/><view id="icon-yout-view-white" viewBox="0 8327.491 276.562 194.875"/><view id="icon-zoom-view-lilack" viewBox="0 8532.366 25.78 25.781"/><view id="icon-zoom-view-dark" viewBox="0 8568.147 25.78 25.781"/><view id="icon-zoom-view-white" viewBox="0 8603.928 25.78 25.781"/> <use xlink:href="#icon-arr_down" x="0" y="0" width="10" height="5" style="fill:#a059cf"/><use xlink:href="#icon-arr_down" x="0" y="15" width="10" height="5" style="fill:#444444"/><use xlink:href="#icon-arr_down" x="0" y="30" width="10" height="5" style="fill:#ffffff"/><use xlink:href="#icon-arr_left" x="0" y="45" width="21.031" height="36" style="fill:#a059cf"/><use xlink:href="#icon-arr_left" x="0" y="91" width="21.031" height="36" style="fill:#444444"/><use xlink:href="#icon-arr_left" x="0" y="137" width="21.031" height="36" style="fill:#ffffff"/><use xlink:href="#icon-arr_right" x="0" y="183" width="21.094" height="35.72" style="fill:#a059cf"/><use xlink:href="#icon-arr_right" x="0" y="228.72" width="21.094" height="35.72" style="fill:#444444"/><use xlink:href="#icon-arr_right" x="0" y="274.44" width="21.094" height="35.72" style="fill:#ffffff"/><use xlink:href="#icon-close" x="0" y="320.15999999999997" width="30" height="30" style="fill:#a059cf"/><use xlink:href="#icon-close" x="0" y="360.15999999999997" width="30" height="30" style="fill:#444444"/><use xlink:href="#icon-close" x="0" y="400.15999999999997" width="30" height="30" style="fill:#ffffff"/><use xlink:href="#icon-fb" x="0" y="440.15999999999997" width="868" height="1608.402" style="fill:#a059cf"/><use xlink:href="#icon-fb" x="0" y="2058.562" width="868" height="1608.402" style="fill:#444444"/><use xlink:href="#icon-fb" x="0" y="3676.964" width="868" height="1608.402" style="fill:#ffffff"/><use xlink:href="#icon-inst" x="0" y="5295.366" width="44.624" height="44.625" style="fill:#a059cf"/><use xlink:href="#icon-inst" x="0" y="5349.991" width="44.624" height="44.625" style="fill:#444444"/><use xlink:href="#icon-inst" x="0" y="5404.616" width="44.624" height="44.625" style="fill:#ffffff"/><use xlink:href="#icon-ok" x="0" y="5459.241" width="45.094" height="75.281" style="fill:#a059cf"/><use xlink:href="#icon-ok" x="0" y="5544.522" width="45.094" height="75.281" style="fill:#444444"/><use xlink:href="#icon-ok" x="0" y="5629.803" width="45.094" height="75.281" style="fill:#ffffff"/><use xlink:href="#icon-tgm" x="0" y="5715.084" width="291" height="246" style="fill:#a059cf"/><use xlink:href="#icon-tgm" x="0" y="5971.084" width="291" height="246" style="fill:#444444"/><use xlink:href="#icon-tgm" x="0" y="6227.084" width="291" height="246" style="fill:#ffffff"/><use xlink:href="#icon-toggle" x="0" y="6483.084" width="48" height="33" style="fill:#a059cf"/><use xlink:href="#icon-toggle" x="0" y="6526.084" width="48" height="33" style="fill:#444444"/><use xlink:href="#icon-toggle" x="0" y="6569.084" width="48" height="33" style="fill:#ffffff"/><use xlink:href="#icon-tw" x="0" y="6612.084" width="300" height="240.938" style="fill:#a059cf"/><use xlink:href="#icon-tw" x="0" y="6863.022" width="300" height="240.938" style="fill:#444444"/><use xlink:href="#icon-tw" x="0" y="7113.96" width="300" height="240.938" style="fill:#ffffff"/><use xlink:href="#icon-vk" x="0" y="7364.898" width="303.125" height="174.281" style="fill:#a059cf"/><use xlink:href="#icon-vk" x="0" y="7549.179" width="303.125" height="174.281" style="fill:#444444"/><use xlink:href="#icon-vk" x="0" y="7733.46" width="303.125" height="174.281" style="fill:#ffffff"/><use xlink:href="#icon-yout" x="0" y="7917.741" width="276.562" height="194.875" style="fill:#a059cf"/><use xlink:href="#icon-yout" x="0" y="8122.616" width="276.562" height="194.875" style="fill:#444444"/><use xlink:href="#icon-yout" x="0" y="8327.491" width="276.562" height="194.875" style="fill:#ffffff"/><use xlink:href="#icon-zoom" x="0" y="8532.366" width="25.78" height="25.781" style="fill:#a059cf"/><use xlink:href="#icon-zoom" x="0" y="8568.147" width="25.78" height="25.781" style="fill:#444444"/><use xlink:href="#icon-zoom" x="0" y="8603.928" width="25.78" height="25.781" style="fill:#ffffff"/></svg>